{"title":"The Least Among You (2009) DVDRip XviD-SKITTLES","uid":5779265,"size":738340864,"categoryP":"video","categoryS":"movies","magnet":"?xt=urn:btih:ca101e3a92a6d9d993b658c76407a50945142617&amp;dn=The+Least+Among+You+%282009%29+DVDRip+XviD-SKITTLES&amp;tr=udp%3A%2F%2Ftracker.openbittorrent.com%3A80&amp;tr=udp%3A%2F%2Fopen.demonii.com%3A1337&amp;tr=udp%3A%2F%2Ftracker.coppersurfer.tk%3A6969&amp;tr=udp%3A%2F%2Fexodus.desync.com%3A6969","seeders":0,"leechers":0,"uploader":"SkittlesRG","files":-1,"time":1282355114,"description":"[img]http://leetleech.org/images/45334623923588694731.jpg[/img]\n\n[b]The Least Among You (2009) DVDRip XviD-SKITTLES[/b]\n\n[img]http://leetleech.org/images/39185456263711143641.png[/img]\n\nVideo\nID                               : 0\nFormat                           : MPEG-4 Visual\nFormat profile                   : Advanced Simple@L5\nFormat settings, BVOP            : Yes\nFormat settings, QPel            : No\nFormat settings, GMC             : No warppoints\nFormat settings, Matrix          : Default (H.263)\nMuxing mode                      : Packed bitstream\nCodec ID                         : XVID\nCodec ID/Hint                    : XviD\nDuration                         : 1h 37mn\nBit rate                         : 877 Kbps\nWidth                            : 640 pixels\nHeight                           : 272 pixels\nDisplay aspect ratio             : 2.35:1\nFrame rate                       : 23.976 fps\nColor space                      : YUV\nChroma subsampling               : 4:2:0\nBit depth                        : 8 bits\nScan type                        : Progressive\nBits/(Pixel*Frame)               : 0.210\nStream size                      : 609 MiB (86%)\nWriting library                  : XviD 1.2.1 (UTC 2008-12-04)\n\nAudio\nID                               : 1\nFormat                           : MPEG Audio\nFormat version                   : Version 1\nFormat profile                   : Layer 3\nMode                             : Joint stereo\nMode extension                   : MS Stereo\nCodec ID                         : 55\nCodec ID/Hint                    : MP3\nDuration                         : 1h 37mn\nBit rate mode                    : Constant\nBit rate                         : 128 Kbps\nChannel(s)                       : 2 channels\nSampling rate                    : 48.0 KHz\nStream size                      : 88.9 MiB (13%)\nAlignment                        : Aligned on interleaves\nInterleave, duration             : 42 ms (1.00 video frame)\nInterleave, preload duration     : 504 ms\n &lt;a href=&quot;\nhttp://www.imdb.com/title/tt1153043/&quot; rel=&quot;nofollow&quot; target=&quot;_NEW&quot;&gt;\nhttp://www.imdb.com/title/tt1153043/&lt;/a&gt;\n\n[img]http://leetleech.org/images/46941880339015444838.png[/img]\n\nCedric Sanders\t... \tRichard Kelly\nLauren Holly\t... \tKate Allison\nLouis Gossett Jr.... \tSamuel Benton\nWilliam Devane\t... \tAlan Beckett\nCory Hardrict\t... \tRoscoe\nJohn Brently Reynolds\t... \tFred Leak\nStarletta DuPois... \tBessie Benton\nCarter MacIntyre... \tJames\nSiena Goines\t... \tRuth Kelly\nBernardo de Paula... \tNick Giffuni\nNicolas Levene\t... \tBill\nScott Waara\t... \tProf. Powell\nRicco Ross\t... \tMarvin Kelly\nMaddy Curley\t... \tKimmy\nKelicea Meadows\t... \tLisa Kreemack\n\n[img]http://leetleech.org/images/70187465700988366433.png[/img]\n\nGenre:\nBiography | Drama \n\nPlot: \nInspired by a true story about a black college graduate forced \nto serve probation after the 1965 Watts riots at an all-white \nseminary that wants black followers not leaders. Encouraged by \nthe seminary president, Alan Beckett, to break the color line \nwhile Prof. Kate Allison, the former missionary, remains skeptical \nand aloof, Richard Kelly nears the breaking point when he meets \nSamuel, an elderly ex-alcoholic janitor who lives in the basement \nof his dormitory. As Samuel guides Richard through the trials of \nracism and the personal life haunts him, he undergoes a \ntransformation that forces him to choose between his dreams and \nhis destiny.  \n\n[img]http://leetleech.org/images/64476088802225496360.png[/img]\n\n[img]http://leetleech.org/images/51902508775791710580.png[/img]\n[img]http://leetleech.org/images/24517726773330765292.png[/img]\n[img]http://leetleech.org/images/94448200605431758544.png[/img]\n[img]http://leetleech.org/images/31474640843675693698.png[/img]\n[img]http://leetleech.org/images/05981318199139012499.png[/img]\n[img]http://leetleech.org/images/18198510462551258653.png[/img]","torrent":{"xt":"urn:btih:ca101e3a92a6d9d993b658c76407a50945142617","amp;dn":"The+Least+Among+You+%282009%29+DVDRip+XviD-SKITTLES","amp;tr":["udp%3A%2F%2Ftracker.openbittorrent.com%3A80","udp%3A%2F%2Fopen.demonii.com%3A1337","udp%3A%2F%2Ftracker.coppersurfer.tk%3A6969","udp%3A%2F%2Fexodus.desync.com%3A6969"],"infoHash":"ca101e3a92a6d9d993b658c76407a50945142617","infoHashBuffer":{"type":"Buffer","data":[202,16,30,58,146,166,217,217,147,182,88,199,100,7,165,9,69,20,38,23]},"announce":[],"urlList":[]}}